<?xml version="1.0" standalone="no"?>
<!DOCTYPE svg PUBLIC "-//W3C//DTD SVG 20010904//EN"
 "http://www.w3.org/TR/2001/REC-SVG-20010904/DTD/svg10.dtd">
<svg version="1.0" xmlns="http://www.w3.org/2000/svg"
 width="498.000000pt" height="498.000000pt" viewBox="0 0 498.000000 498.000000"
 preserveAspectRatio="xMidYMid meet">
<metadata>
Created by potrace 1.11, written by Peter Selinger 2001-2013
</metadata>
<g transform="translate(0.000000,498.000000) scale(0.100000,-0.100000)"
fill="#000000" stroke="none">
<path d="M2735 4739 c-16 -5 -41 -11 -55 -13 -14 -3 -34 -7 -45 -10 -52 -12
-252 -58 -265 -61 -8 -2 -77 -18 -154 -35 -76 -17 -146 -33 -155 -35 -9 -2
-77 -17 -151 -35 -74 -17 -142 -33 -150 -35 -8 -2 -125 -28 -260 -59 -135 -31
-317 -73 -405 -93 -88 -20 -163 -39 -167 -42 -4 -3 -1 -19 7 -36 8 -16 37 -79
66 -140 28 -60 64 -138 80 -173 37 -80 174 -371 205 -436 13 -28 24 -57 23
-65 0 -9 -19 -31 -42 -50 -37 -29 -129 -109 -192 -166 -13 -11 -49 -42 -81
-70 -31 -27 -62 -54 -68 -60 -18 -16 -158 -139 -191 -167 -86 -73 -265 -230
-284 -248 -9 -9 -47 -43 -86 -75 -38 -33 -79 -69 -91 -80 -12 -11 -43 -39 -70
-62 -138 -117 -141 -121 -119 -136 22 -16 263 -201 280 -215 6 -4 84 -64 175
-132 91 -69 167 -127 170 -130 5 -6 290 -223 405 -310 33 -25 67 -51 75 -57
12 -10 291 -224 500 -383 19 -14 133 -101 256 -195 122 -93 272 -208 334 -255
62 -47 122 -93 133 -102 12 -10 27 -21 32 -25 6 -5 66 -51 135 -103 69 -52
130 -99 136 -105 7 -5 23 -18 38 -29 14 -10 33 -24 43 -31 15 -11 20 -10 36 9
10 11 66 71 123 132 57 61 113 121 124 133 10 13 72 79 137 149 65 70 143 153
173 186 30 32 71 76 90 96 50 53 230 247 259 279 13 14 78 84 145 156 159 169
227 242 266 285 18 19 80 87 140 150 59 63 119 129 134 145 24 26 189 204 270
290 131 140 191 209 191 220 0 7 -64 79 -141 161 -78 82 -156 165 -174 184
-35 38 -246 262 -320 340 -25 26 -100 106 -167 176 -67 71 -139 147 -160 170
-21 22 -97 103 -169 180 -72 76 -146 155 -164 174 -17 19 -64 69 -103 110 -75
79 -302 319 -382 405 -26 28 -104 110 -174 184 -69 73 -127 137 -129 142 -4
11 -27 10 -67 -2z"/>
</g>
</svg>
